ffmpeg started on 2016-11-28 at 06:43:14
Report written to "Output/NVENCh264/results/ffmpeg/crowd_run_2160p50llhp12000k.log"
Command line:
Tools/ffmpeg/ffmpeg -benchmark -y -i Input/y4m/crowd_run_2160p50.y4m -c:v h264_nvenc -preset llhp -b:v 12000k -an Output/NVENCh264/encoded/crowd_run_2160p50llhp12000k.mkv
ffmpeg version N-82227-gdb23fde Copyright (c) 2000-2016 the FFmpeg developers
  built with gcc 5.4.0 (Ubuntu 5.4.0-6ubuntu1~16.04.2) 20160609
  configuration: --prefix=/home/jaroslav/ffmpeg_build --pkg-config-flags=--static --extra-cflags=-I/home/jaroslav/ffmpeg_build/include --extra-ldflags=-L/home/jaroslav/ffmpeg_build/lib --bindir=/home/jaroslav/bin --enable-gpl --enable-libass --enable-libfdk-aac --enable-libfreetype --enable-libmp3lame --enable-libopus --enable-libtheora --enable-libvorbis --enable-libvpx --enable-libx264 --enable-libx265 --enable-nvenc --enable-libmfx --enable-libxvid --enable-libgsm --enable-libopencore-amrnb --enable-version3 --enable-nonfree
  libavutil      55. 35.100 / 55. 35.100
  libavcodec     57. 66.101 / 57. 66.101
  libavformat    57. 57.100 / 57. 57.100
  libavdevice    57.  2.100 / 57.  2.100
  libavfilter     6. 66.100 /  6. 66.100
  libswscale      4.  3.100 /  4.  3.100
  libswresample   2.  4.100 /  2.  4.100
  libpostproc    54.  2.100 / 54.  2.100
Input #0, yuv4mpegpipe, from 'Input/y4m/crowd_run_2160p50.y4m':
  Duration: 00:00:10.00, start: 0.000000, bitrate: 4976642 kb/s
    Stream #0:0: Video: rawvideo (I420 / 0x30323449), yuv420p(progressive), 3840x2160, SAR 1:1 DAR 16:9, 50 fps, 50 tbr, 50 tbn, 50 tbc
[h264_nvenc @ 0x42681c0] The variable bitrate rate-control requires the 'qmin' and/or 'qmax' option set.
Output #0, matroska, to 'Output/NVENCh264/encoded/crowd_run_2160p50llhp12000k.mkv':
  Metadata:
    encoder         : Lavf57.57.100
    Stream #0:0: Video: h264 (h264_nvenc) (Main) (H264 / 0x34363248), yuv420p, 3840x2160 [SAR 1:1 DAR 16:9], q=-1--1, 12000 kb/s, 50 fps, 1k tbn, 50 tbc
    Metadata:
      encoder         : Lavc57.66.101 h264_nvenc
    Side data:
      cpb: bitrate max/min/avg: 0/0/12000000 buffer size: 24000000 vbv_delay: -1
Stream mapping:
  Stream #0:0 -> #0:0 (rawvideo (native) -> h264 (h264_nvenc))
Press [q] to stop, [?] for help
frame=   12 fps=0.0 q=0.0 size=       0kB time=00:00:00.00 bitrate=N/A speed=   0x    frame=   24 fps= 22 q=0.0 size=       0kB time=00:00:00.00 bitrate=N/A speed=   0x    frame=   34 fps= 22 q=44.0 size=       1kB time=00:00:00.06 bitrate=  98.2kbits/s speed=0.0388x    frame=   52 fps= 25 q=42.0 size=       1kB time=00:00:00.42 bitrate=  14.2kbits/s speed=0.201x    frame=   70 fps= 27 q=42.0 size=       1kB time=00:00:00.78 bitrate=   7.7kbits/s speed=0.298x    frame=   88 fps= 28 q=42.0 size=       1kB time=00:00:01.14 bitrate=   5.3kbits/s speed=0.363x    frame=   97 fps= 13 q=42.0 size=       1kB time=00:00:01.32 bitrate=   4.5kbits/s speed=0.181x    frame=   98 fps=8.9 q=42.0 size=       1kB time=00:00:01.34 bitrate=   4.5kbits/s speed=0.122x    frame=   99 fps=8.0 q=42.0 size=       1kB time=00:00:01.36 bitrate=   4.4kbits/s speed=0.11x    frame=  116 fps=9.0 q=42.0 size=       1kB time=00:00:01.70 bitrate=   3.5kbits/s speed=0.132x    frame=  134 fps= 10 q=42.0 size=       1kB time=00:00:02.06 bitrate=   2.9kbits/s speed=0.154x    frame=  152 fps= 11 q=42.0 size=       1kB time=00:00:02.42 bitrate=   2.5kbits/s speed=0.174x    frame=  169 fps= 12 q=41.0 size=       1kB time=00:00:02.76 bitrate=   2.2kbits/s speed=0.191x    frame=  186 fps= 12 q=41.0 size=       1kB time=00:00:03.10 bitrate=   1.9kbits/s speed=0.207x    frame=  203 fps= 13 q=42.0 size=       1kB time=00:00:03.44 bitrate=   1.7kbits/s speed=0.223x    frame=  214 fps= 13 q=42.0 size=    5138kB time=00:00:03.66 bitrate=11497.8kbits/s speed=0.229x    frame=  232 fps= 14 q=42.0 size=    5138kB time=00:00:04.02 bitrate=10468.4kbits/s speed=0.244x    frame=  250 fps= 15 q=42.0 size=    5138kB time=00:00:04.38 bitrate=9608.2kbits/s speed=0.257x    frame=  268 fps= 15 q=42.0 size=    5138kB time=00:00:04.74 bitrate=8878.6kbits/s speed=0.27x    frame=  285 fps= 16 q=43.0 size=    7323kB time=00:00:05.08 bitrate=11806.7kbits/s speed=0.281x    frame=  303 fps= 16 q=42.0 size=    7323kB time=00:00:05.44 bitrate=11025.5kbits/s speed=0.292x    frame=  321 fps= 17 q=42.0 size=    7323kB time=00:00:05.80 bitrate=10341.3kbits/s speed=0.303x    frame=  339 fps= 17 q=42.0 size=    7323kB time=00:00:06.16 bitrate=9737.0kbits/s speed=0.314x    frame=  357 fps= 18 q=43.0 size=    7323kB time=00:00:06.52 bitrate=9199.5kbits/s speed=0.323x    frame=  375 fps= 18 q=42.0 size=    7323kB time=00:00:06.88 bitrate=8718.2kbits/s speed=0.333x    frame=  393 fps= 19 q=41.0 size=    7323kB time=00:00:07.24 bitrate=8284.7kbits/s speed=0.341x    frame=  411 fps= 19 q=42.0 size=    7323kB time=00:00:07.60 bitrate=7892.4kbits/s speed=0.35x    frame=  429 fps= 19 q=42.0 size=    7323kB time=00:00:07.96 bitrate=7535.5kbits/s speed=0.358x    frame=  447 fps= 20 q=43.0 size=    7323kB time=00:00:08.32 bitrate=7209.4kbits/s speed=0.366x    frame=  465 fps= 20 q=42.0 size=   12472kB time=00:00:08.68 bitrate=11769.3kbits/s speed=0.373x    frame=  483 fps= 20 q=42.0 size=   12472kB time=00:00:09.04 bitrate=11300.6kbits/s speed=0.38x    frame=  500 fps= 21 q=41.0 size=   12472kB time=00:00:09.38 bitrate=10891.1kbits/s speed=0.386x    frame=  500 fps= 21 q=42.0 Lsize=   14663kB time=00:00:09.98 bitrate=12035.2kbits/s speed=0.41x    
video:14659kB audio:0kB subtitle:0kB other streams:0kB global headers:0kB muxing overhead: 0.032497%
bench: utime=1.072s
bench: maxrss=1409228kB
